<svg width="130" height="47" viewBox="0 0 130 47" fill="none" xmlns="http://www.w3.org/2000/svg">
<path d="M130 41.9968C130 44.5279 128.326 46.5781 126.256 46.5781H3.7484C1.67941 46.5781 0 44.5279 0 41.9968V5.4623C0 2.93241 1.67941 0.875 3.7484 0.875H126.256C128.326 0.875 129.999 2.93241 129.999 5.4623L130 41.9968Z" fill="black"/>
<path d="M25.7141 11.6398C26.7135 10.3909 27.3973 8.69192 27.2075 6.96777C25.7609 7.03176 23.9519 7.96753 22.9102 9.18895C21.9885 10.2653 21.1651 12.0294 21.3778 13.6884C23.0028 13.8095 24.6712 12.8692 25.7141 11.6398Z" fill="white"/>
<path d="M30.996 24.5013C30.9629 20.8188 34.0138 19.0272 34.1533 18.9438C32.4254 16.4267 29.7473 16.0828 28.8062 16.0554C26.5569 15.8188 24.3751 17.4002 23.2292 17.4002C22.0606 17.4002 20.2961 16.0782 18.3944 16.1171C15.9473 16.1548 13.658 17.5704 12.4024 19.7687C9.8112 24.2511 11.7437 30.838 14.2263 34.4612C15.4682 36.2356 16.9193 38.2168 18.8187 38.1471C20.6769 38.0706 21.371 36.9634 23.6135 36.9634C25.8353 36.9634 26.4871 38.1471 28.4242 38.1025C30.4185 38.0706 31.6741 36.3201 32.8725 34.5297C34.3077 32.4959 34.884 30.493 34.9069 30.3901C34.86 30.3742 31.0338 28.9151 30.996 24.5013Z" fill="white"/>
<path d="M49.6942 36.1865H51.416V27.5696H49.6942V36.1865ZM50.5591 26.3397C51.1145 26.3397 51.5668 25.8954 51.5668 25.3479C51.5668 24.7845 51.1145 24.3561 50.5591 24.3561C50.0037 24.3561 49.5514 24.7845 49.5514 25.3479C49.5514 25.8954 50.0037 26.3397 50.5591 26.3397ZM58.3746 24.5465C55.0739 24.5465 53.0109 26.8237 53.0109 30.4657C53.0109 34.1077 55.0739 36.377 58.3746 36.377C61.6675 36.377 63.7384 34.1077 63.7384 30.4657C63.7384 26.8237 61.6675 24.5465 58.3746 24.5465ZM58.3746 26.1096C60.5487 26.1096 61.9135 27.7917 61.9135 30.4657C61.9135 33.1317 60.5487 34.8138 58.3746 34.8138C56.2006 34.8138 54.8279 33.1317 54.8279 30.4657C54.8279 27.7917 56.2006 26.1096 58.3746 26.1096ZM64.9286 32.9968C65.0397 35.0677 66.7535 36.377 69.2926 36.377C72.0062 36.377 73.7122 35.036 73.7122 32.8937C73.7122 31.2195 72.7362 30.2753 70.3876 29.7198L69.126 29.4104C67.6501 29.0454 67.0471 28.5693 67.0471 27.76C67.0471 26.7444 67.9913 26.0461 69.3719 26.0461C70.7526 26.0461 71.6968 26.7365 71.7999 27.879H73.5297C73.4741 25.9033 71.8158 24.5465 69.3958 24.5465C66.9519 24.5465 65.2301 25.9033 65.2301 27.879C65.2301 29.4739 66.2061 30.4578 68.3087 30.9656L69.7925 31.3226C71.2762 31.6876 71.9031 32.2192 71.9031 33.1079C71.9031 34.1315 70.8636 34.8773 69.4196 34.8773C67.912 34.8773 66.8091 34.1315 66.6821 32.9968H64.9286Z" fill="white"/>
<path d="M54.9905 18.4017V17.7144H52.323V18.6144H53.8341L53.8286 18.7126C53.8068 19.5472 53.1522 20.1146 52.203 20.1146C51.0738 20.1146 50.3647 19.2581 50.3647 17.8562C50.3647 16.4761 51.0411 15.6633 52.1758 15.6633C52.9449 15.6633 53.5231 16.0724 53.7413 16.7652H54.936C54.7287 15.5051 53.6322 14.6541 52.1703 14.6541C50.3156 14.6541 49.1591 15.8706 49.1591 17.8671C49.1591 19.8909 50.3156 21.1183 52.1921 21.1183C53.9486 21.1183 54.9905 20.0982 54.9905 18.4017ZM60.1892 20.0109H57.2216V18.3144H60.031V17.3762H57.2216V15.7669H60.1892V14.7632H56.0379V21.0146H60.1892V20.0109ZM64.0677 21.0146V15.7669H65.9933V14.7632H60.9638V15.7669H62.8894V21.0146H64.0677ZM70.6519 21.0146V18.4999H73.3139V17.5398H70.6519V15.7669H73.5649V14.7632H69.4682V21.0146H70.6519ZM77.3507 14.6541C75.4741 14.6541 74.3068 15.8978 74.3068 17.8889C74.3068 19.88 75.4741 21.1183 77.3507 21.1183C79.2163 21.1183 80.3891 19.88 80.3891 17.8889C80.3891 15.8978 79.2163 14.6541 77.3507 14.6541ZM77.3507 15.6742C78.4689 15.6742 79.1781 16.5306 79.1781 17.8889C79.1781 19.2472 78.4689 20.1037 77.3507 20.1037C76.2215 20.1037 75.5123 19.2472 75.5123 17.8889C75.5123 16.5306 76.2269 15.6742 77.3507 15.6742ZM82.5984 15.7178H83.8639C84.5731 15.7178 85.015 16.1215 85.015 16.7543C85.015 17.4089 84.6004 17.7907 83.8858 17.7907H82.5984V15.7178ZM82.5984 18.6908H83.8258L85.064 21.0146H86.4169L85.0313 18.5053C85.7896 18.2326 86.226 17.5453 86.226 16.727C86.226 15.516 85.3968 14.7632 83.9949 14.7632H81.4146V21.0146H82.5984V18.6908Z" fill="white"/>
</svg>
