<svg width="130" height="46" viewBox="0 0 130 46" fill="none" xmlns="http://www.w3.org/2000/svg">
<path d="M124.922 0H5.07812C2.27355 0 0 2.27355 0 5.07812V40.625C0 43.4296 2.27355 45.7031 5.07812 45.7031H124.922C127.726 45.7031 130 43.4296 130 40.625V5.07812C130 2.27355 127.726 0 124.922 0Z" fill="black"/>
<path d="M58.9856 30.4248L60.7629 21.7285H62.7545L60.0885 33.2812H58.1683L55.9705 24.8468L53.725 33.2812H51.7969L49.1309 21.7285H51.1224L52.9156 30.4089L55.1215 21.7285H56.8036L58.9856 30.4248ZM66.087 33.2812H64.1589V24.696H66.087V33.2812ZM64.0399 22.4664C64.0399 22.1702 64.1325 21.9242 64.3176 21.7285C64.5081 21.5328 64.7778 21.4349 65.127 21.4349C65.4761 21.4349 65.7458 21.5328 65.9363 21.7285C66.1267 21.9242 66.2219 22.1702 66.2219 22.4664C66.2219 22.7574 66.1267 23.0007 65.9363 23.1964C65.7458 23.3868 65.4761 23.4821 65.127 23.4821C64.7778 23.4821 64.5081 23.3868 64.3176 23.1964C64.1325 23.0007 64.0399 22.7574 64.0399 22.4664ZM69.9829 24.696L70.0385 25.6879C70.6732 24.9209 71.5063 24.5374 72.5378 24.5374C74.3258 24.5374 75.2356 25.5609 75.2673 27.608V33.2812H73.3392V27.7191C73.3392 27.1743 73.2202 26.7723 72.9822 26.5131C72.7494 26.2486 72.3659 26.1163 71.8317 26.1163C71.0541 26.1163 70.4749 26.4681 70.094 27.1716V33.2812H68.1659V24.696H69.9829ZM76.8781 28.9252C76.8781 27.6027 77.1849 26.5422 77.7985 25.7434C78.4121 24.9394 79.2346 24.5374 80.2661 24.5374C81.1759 24.5374 81.9112 24.8547 82.4719 25.4895V21.0938H84.4V33.2812H82.6544L82.5592 32.3926C81.9826 33.0908 81.213 33.4399 80.2502 33.4399C79.2452 33.4399 78.4306 33.0353 77.8064 32.226C77.1875 31.4166 76.8781 30.3164 76.8781 28.9252ZM78.8062 29.0918C78.8062 29.9646 78.9728 30.647 79.306 31.1389C79.6446 31.6256 80.1233 31.8689 80.7422 31.8689C81.5304 31.8689 82.1069 31.5171 82.4719 30.8136V27.1478C82.1175 26.4602 81.5462 26.1163 80.7581 26.1163C80.1339 26.1163 79.6525 26.3649 79.314 26.8622C78.9754 27.3541 78.8062 28.0973 78.8062 29.0918ZM86.0504 28.9093C86.0504 28.0682 86.217 27.3118 86.5503 26.64C86.8835 25.9629 87.3517 25.4445 87.9547 25.0848C88.5577 24.7198 89.2507 24.5374 90.0336 24.5374C91.192 24.5374 92.1309 24.9103 92.8503 25.6561C93.575 26.402 93.9665 27.3912 94.0247 28.6237L94.0326 29.0759C94.0326 29.9223 93.8686 30.6787 93.5406 31.3452C93.218 32.0117 92.7525 32.5275 92.1442 32.8925C91.5411 33.2574 90.8429 33.4399 90.0494 33.4399C88.8381 33.4399 87.8674 33.0379 87.1375 32.2339C86.4128 31.4246 86.0504 30.3481 86.0504 29.0045V28.9093ZM87.9785 29.0759C87.9785 29.9593 88.161 30.6523 88.526 31.1548C88.891 31.652 89.3988 31.9006 90.0494 31.9006C90.7001 31.9006 91.2052 31.6467 91.5649 31.1389C91.9299 30.6311 92.1124 29.8879 92.1124 28.9093C92.1124 28.0418 91.9246 27.3541 91.5491 26.8463C91.1788 26.3385 90.6736 26.0846 90.0336 26.0846C89.4041 26.0846 88.9042 26.3359 88.5339 26.8384C88.1637 27.3356 87.9785 28.0815 87.9785 29.0759ZM103.205 30.6232L104.57 24.696H106.45L104.109 33.2812H102.523L100.682 27.3859L98.8727 33.2812H97.2858L94.9371 24.696H96.8176L98.2062 30.5597L99.9677 24.696H101.42L103.205 30.6232ZM112.552 30.9485C112.552 30.6047 112.409 30.3428 112.123 30.163C111.843 29.9831 111.375 29.8244 110.719 29.6869C110.063 29.5494 109.516 29.3748 109.077 29.1632C108.114 28.6977 107.632 28.0233 107.632 27.1399C107.632 26.3993 107.945 25.7804 108.569 25.2832C109.193 24.786 109.986 24.5374 110.949 24.5374C111.975 24.5374 112.803 24.7913 113.433 25.2991C114.067 25.8069 114.385 26.4655 114.385 27.2748H112.457C112.457 26.9045 112.319 26.5977 112.044 26.3544C111.769 26.1058 111.404 25.9814 110.949 25.9814C110.526 25.9814 110.179 26.0793 109.91 26.275C109.645 26.4707 109.513 26.7326 109.513 27.0605C109.513 27.3568 109.637 27.5869 109.886 27.7509C110.134 27.9148 110.637 28.0815 111.393 28.2507C112.15 28.4147 112.742 28.6131 113.171 28.8458C113.605 29.0733 113.925 29.3483 114.131 29.671C114.342 29.9937 114.448 30.3851 114.448 30.8453C114.448 31.6176 114.128 32.2445 113.488 32.7258C112.848 33.2019 112.01 33.4399 110.973 33.4399C110.269 33.4399 109.643 33.313 109.092 33.0591C108.542 32.8052 108.114 32.4561 107.807 32.0117C107.5 31.5674 107.347 31.0887 107.347 30.5756H109.219C109.246 31.0305 109.418 31.3822 109.735 31.6309C110.052 31.8742 110.473 31.9958 110.997 31.9958C111.505 31.9958 111.891 31.9006 112.155 31.7102C112.42 31.5145 112.552 31.2606 112.552 30.9485Z" fill="white"/>
<path d="M54.7287 16.3075L54.6032 16.4384C54.0577 16.9439 53.2413 17.1967 52.1539 17.1967C51.252 17.1967 50.5356 16.9221 50.0047 16.3729C49.4737 15.8238 49.2082 15.0674 49.2082 14.1037V13.7491C49.2082 12.7854 49.461 12.0308 49.9665 11.4853C50.472 10.9398 51.1684 10.667 52.0557 10.667C52.8376 10.667 53.4559 10.8452 53.9104 11.2016C54.365 11.5543 54.6378 12.0798 54.7287 12.7781H53.4359C53.3704 12.4144 53.2268 12.1489 53.0049 11.9817C52.7867 11.8144 52.4812 11.7307 52.0885 11.7307C51.0557 11.7307 50.5392 12.4126 50.5392 13.7764V14.1255C50.5392 14.791 50.6847 15.2929 50.9756 15.6311C51.2666 15.9693 51.6812 16.1384 52.2194 16.1384C52.7576 16.1384 53.154 16.0347 53.4086 15.8274V14.7364H52.0503V13.7709H54.7287V16.3075ZM59.9492 14.36H57.2107V16.0511H60.4183V17.1094H55.8852V10.7543H60.4019V11.8235H57.2107V13.2963H59.9492V14.36ZM66.3588 11.8235H64.2532V17.1094H62.9276V11.8235H60.8492V10.7543H66.3588V11.8235ZM74.034 14.5182H71.3174V17.1094H69.9918V10.7543H74.3995V11.8235H71.3174V13.4545H74.034V14.5182ZM80.8091 14.0764C80.8091 15.0365 80.5455 15.7965 80.0182 16.3566C79.4945 16.9166 78.8017 17.1967 77.9398 17.1967C77.0815 17.1967 76.3851 16.9166 75.8505 16.3566C75.3159 15.7929 75.0486 15.0237 75.0486 14.0491V13.7982C75.0486 13.1727 75.1686 12.6217 75.4087 12.1453C75.6523 11.6653 75.9924 11.2998 76.4288 11.0489C76.8652 10.7943 77.3652 10.667 77.9289 10.667C78.8017 10.667 79.4999 10.9525 80.0236 11.5234C80.5473 12.0908 80.8091 12.8599 80.8091 13.8309V14.0764ZM79.489 13.7873C79.489 13.1218 79.3526 12.6144 79.0799 12.2653C78.8071 11.9162 78.4235 11.7416 77.9289 11.7416C77.4416 11.7416 77.0597 11.9162 76.7833 12.2653C76.5069 12.6144 76.3688 13.1218 76.3688 13.7873V14.0764C76.3688 14.7237 76.5069 15.2292 76.7833 15.5929C77.0634 15.9529 77.4488 16.1329 77.9398 16.1329C78.4344 16.1329 78.8162 15.9565 79.0854 15.6038C79.3545 15.2474 79.489 14.7383 79.489 14.0764V13.7873ZM84.4367 14.791H83.2203V17.1094H81.8947V10.7543H84.3822C85.175 10.7543 85.7896 10.9216 86.226 11.2561C86.6624 11.5871 86.8806 12.0617 86.8806 12.6799C86.8806 13.5345 86.4714 14.1273 85.6532 14.4582L87.1479 17.0494V17.1094H85.7296L84.4367 14.791ZM83.2203 13.7327H84.3822C84.7749 13.7327 85.0695 13.6473 85.2659 13.4763C85.4623 13.3018 85.5605 13.0727 85.5605 12.789C85.5605 12.4944 85.4641 12.2599 85.2713 12.0853C85.0822 11.9107 84.7858 11.8235 84.3822 11.8235H83.2203V13.7327Z" fill="white"/>
<path d="M10 11.6812L20.6254 10.2386L20.63 20.456L10.0097 20.5163L10 11.6812ZM20.6203 21.6333L20.6286 31.8596L10.0082 30.404L10.0077 21.5647L20.6203 21.6333ZM21.9084 10.0498L35.9967 8V20.3261L21.9084 20.4376V10.0498ZM36 21.7294L35.9967 34L21.9083 32.0177L21.8886 21.7065L36 21.7294Z" fill="#00ADEF"/>
</svg>
