<svg width="130" height="47" viewBox="0 0 130 47" fill="none" xmlns="http://www.w3.org/2000/svg">
<path d="M130 42.0124C130 44.5435 128.326 46.5938 126.256 46.5938H3.7484C1.67941 46.5938 0 44.5435 0 42.0124V5.47792C0 2.94803 1.67941 0.890625 3.7484 0.890625H126.256C128.326 0.890625 129.999 2.94803 129.999 5.47792L130 42.0124Z" fill="black"/>
<path d="M56.9147 34.6638H51.5826V24.7535H49.8053V36.2031H56.9147V34.6638ZM58.327 36.2031H60.0488V27.5862H58.327V36.2031ZM59.1919 26.3563C59.7473 26.3563 60.1996 25.912 60.1996 25.3645C60.1996 24.8011 59.7473 24.3727 59.1919 24.3727C58.6365 24.3727 58.1842 24.8011 58.1842 25.3645C58.1842 25.912 58.6365 26.3563 59.1919 26.3563ZM61.8817 36.2031H63.6035V31.2281C63.6035 29.8713 64.3811 28.9668 65.6824 28.9668C66.944 28.9668 67.547 29.6968 67.547 31.006V36.2031H69.2688V30.6807C69.2688 28.697 68.1818 27.491 66.2775 27.491C64.9445 27.491 64.0796 28.0226 63.5559 29.0382H63.5242V27.5862H61.8817V36.2031ZM78.338 27.5862H76.6162V32.5532C76.6162 33.918 75.8307 34.8146 74.5453 34.8146C73.2996 34.8146 72.6727 34.1084 72.6727 32.7833V27.5862H70.9509V33.1086C70.9509 35.0844 72.0935 36.2983 73.974 36.2983C75.2911 36.2983 76.1639 35.7509 76.6638 34.7273H76.6956V36.2031H78.338V27.5862ZM83.3051 33.0055L85.2332 36.2031H87.1295L84.3207 31.8391L87.1613 27.5862H85.2728L83.3765 30.7203H83.3368L81.4246 27.5862H79.4965L82.3291 31.9026L79.4647 36.2031H81.3293L83.2654 33.0055H83.3051Z" fill="white"/>
<path d="M54.9905 18.4183V17.731H52.323V18.631H53.8341L53.8286 18.7292C53.8068 19.5639 53.1522 20.1312 52.203 20.1312C51.0738 20.1312 50.3647 19.2747 50.3647 17.8728C50.3647 16.4927 51.0411 15.6799 52.1758 15.6799C52.9449 15.6799 53.5231 16.089 53.7413 16.7818H54.936C54.7287 15.5217 53.6322 14.6707 52.1703 14.6707C50.3156 14.6707 49.1591 15.8872 49.1591 17.8837C49.1591 19.9075 50.3156 21.1349 52.1921 21.1349C53.9486 21.1349 54.9905 20.1148 54.9905 18.4183ZM60.1892 20.0275H57.2216V18.331H60.031V17.3928H57.2216V15.7835H60.1892V14.7798H56.0379V21.0312H60.1892V20.0275ZM64.0677 21.0312V15.7835H65.9933V14.7798H60.9638V15.7835H62.8894V21.0312H64.0677ZM70.6519 21.0312V18.5165H73.3139V17.5564H70.6519V15.7835H73.5649V14.7798H69.4682V21.0312H70.6519ZM77.3507 14.6707C75.4741 14.6707 74.3068 15.9144 74.3068 17.9055C74.3068 19.8966 75.4741 21.1349 77.3507 21.1349C79.2163 21.1349 80.3891 19.8966 80.3891 17.9055C80.3891 15.9144 79.2163 14.6707 77.3507 14.6707ZM77.3507 15.6908C78.4689 15.6908 79.1781 16.5472 79.1781 17.9055C79.1781 19.2638 78.4689 20.1203 77.3507 20.1203C76.2215 20.1203 75.5123 19.2638 75.5123 17.9055C75.5123 16.5472 76.2269 15.6908 77.3507 15.6908ZM82.5984 15.7344H83.8639C84.5731 15.7344 85.015 16.1381 85.015 16.7709C85.015 17.4255 84.6004 17.8073 83.8858 17.8073H82.5984V15.7344ZM82.5984 18.7074H83.8258L85.064 21.0312H86.4169L85.0313 18.5219C85.7896 18.2492 86.226 17.5619 86.226 16.7436C86.226 15.5326 85.3968 14.7798 83.9949 14.7798H81.4146V21.0312H82.5984V18.7074Z" fill="white"/>
<path d="M37.5781 24.2496C37.5781 32.1027 31.2127 38.4687 23.3597 38.4687C15.5066 38.4687 9.14062 32.1027 9.14062 24.2496C9.14062 16.3971 15.5067 10.0312 23.3597 10.0312C31.2127 10.0312 37.5781 16.397 37.5781 24.2496Z" fill="#E95420"/>
<path d="M15.6571 24.2494C15.6571 25.3233 14.835 26.1942 13.8202 26.1942C12.8065 26.1942 11.9844 25.3234 11.9844 24.2494C11.9844 23.1758 12.8065 22.3052 13.8202 22.3052C14.835 22.3052 15.6571 23.1758 15.6571 24.2494ZM26.1041 33.7047C26.6112 34.6341 27.7338 34.9529 28.6121 34.4165C29.4902 33.8794 29.7911 32.69 29.2841 31.7599C28.777 30.8299 27.6544 30.5119 26.7762 31.0489C25.8979 31.586 25.597 32.7747 26.1041 33.7047ZM29.284 16.7394C29.791 15.8092 29.4908 14.6201 28.612 14.0836C27.7343 13.5466 26.6112 13.8653 26.104 14.7951C25.5969 15.7251 25.8978 16.9141 26.7761 17.451C27.6544 17.988 28.7775 17.6694 29.284 16.7394ZM23.0695 18.7043C25.8056 18.7043 28.0508 20.9254 28.2853 23.7586L30.9427 23.7142C30.8165 21.6091 29.9543 19.7158 28.6256 18.3198C27.9222 18.6072 27.1061 18.5681 26.402 18.1373C25.6975 17.7065 25.2574 16.9772 25.141 16.1871C24.4806 15.9972 23.7859 15.8955 23.0695 15.8955C21.8128 15.8955 20.625 16.2067 19.5701 16.7602L20.8632 19.2192C21.5333 18.8894 22.2817 18.7043 23.0695 18.7043ZM17.8327 24.2494C17.8327 22.3737 18.7128 20.7149 20.0594 19.712L18.695 17.2966C17.1145 18.4143 15.9373 20.1193 15.4406 22.1182C16.0284 22.6194 16.4049 23.3878 16.4049 24.2495C16.4049 25.1117 16.0283 25.88 15.4406 26.3814C15.9373 28.3802 17.1145 30.0852 18.695 31.2035L20.0594 28.7882C18.7128 27.7844 17.8327 26.1263 17.8327 24.2494ZM23.0695 29.7955C22.2818 29.7955 21.5334 29.6105 20.8632 29.2801L19.5701 31.7391C20.625 32.293 21.8127 32.6039 23.0695 32.6039C23.7858 32.6039 24.4806 32.5029 25.141 32.3127C25.2573 31.522 25.6974 30.7928 26.402 30.3627C27.1061 29.9319 27.9222 29.8928 28.6256 30.1801C29.9544 28.7835 30.8165 26.8902 30.9427 24.7851L28.2853 24.7414C28.0507 27.5739 25.8056 29.7955 23.0695 29.7955Z" fill="white"/>
</svg>
