<svg width="130" height="47" viewBox="0 0 130 47" fill="none" xmlns="http://www.w3.org/2000/svg">
<path d="M130 41.8406C130 44.3716 128.326 46.4219 126.256 46.4219H3.7484C1.67941 46.4219 0 44.3716 0 41.8406V5.30605C0 2.77616 1.67941 0.71875 3.7484 0.71875H126.256C128.326 0.71875 129.999 2.77616 129.999 5.30605L130 41.8406Z" fill="black"/>
<path d="M25.7141 11.4845C26.7135 10.2357 27.3973 8.53665 27.2075 6.8125C25.7609 6.87648 23.9519 7.81226 22.9102 9.03367C21.9885 10.11 21.1651 11.8741 21.3778 13.5331C23.0028 13.6543 24.6712 12.7139 25.7141 11.4845Z" fill="white"/>
<path d="M30.996 24.346C30.9629 20.6635 34.0138 18.8719 34.1533 18.7885C32.4254 16.2714 29.7473 15.9275 28.8062 15.9001C26.5569 15.6636 24.3751 17.2449 23.2292 17.2449C22.0606 17.2449 20.2961 15.9229 18.3944 15.9618C15.9473 15.9995 13.658 17.4151 12.4024 19.6135C9.8112 24.0958 11.7437 30.6828 14.2263 34.3059C15.4682 36.0803 16.9193 38.0615 18.8187 37.9918C20.6769 37.9153 21.371 36.8081 23.6135 36.8081C25.8353 36.8081 26.4871 37.9918 28.4242 37.9473C30.4185 37.9153 31.6741 36.1649 32.8725 34.3744C34.3077 32.3406 34.884 30.3377 34.9069 30.2349C34.86 30.2189 31.0338 28.7598 30.996 24.346Z" fill="white"/>
<path d="M61.3898 24.5817H59.3268L55.6293 33.6191H55.5658L51.8604 24.5817H49.8053V36.0312H51.424V27.6047H51.4795L54.939 35.944H56.2561L59.7076 27.6047H59.7632V36.0312H61.3898V24.5817ZM66.3171 34.7458C65.3253 34.7458 64.6826 34.2698 64.6826 33.5319C64.6826 32.7701 65.2936 32.3337 66.4679 32.2623L68.5626 32.1195V32.7939C68.5626 33.9286 67.5946 34.7458 66.3171 34.7458ZM65.8569 36.1185C67.0312 36.1185 68.1024 35.5314 68.5785 34.5951H68.6182V36.0312H70.2606V30.12C70.2606 28.4141 68.9038 27.3032 66.8011 27.3032C64.8651 27.3032 63.421 28.4299 63.3734 29.9534H64.9841C65.1349 29.2075 65.8173 28.7235 66.7535 28.7235C67.9041 28.7235 68.5626 29.2631 68.5626 30.2469V30.9135L66.2378 31.0483C64.1113 31.1832 62.9449 32.056 62.9449 33.5636C62.9449 35.1029 64.1351 36.1185 65.8569 36.1185ZM79.3536 30.358C79.2029 28.6997 77.8381 27.3032 75.6403 27.3032C73.2043 27.3032 71.6016 29.0409 71.6016 31.7228C71.6016 34.4523 73.2123 36.1344 75.6561 36.1344C77.7271 36.1344 79.1711 34.9363 79.3695 33.1351H77.7271C77.5208 34.1428 76.7828 34.6903 75.6641 34.6903C74.2834 34.6903 73.3472 33.5795 73.3472 31.7228C73.3472 29.9137 74.2676 28.7552 75.6561 28.7552C76.8384 28.7552 77.5525 29.4456 77.7112 30.358H79.3536Z" fill="white"/>
<path d="M54.9905 18.2464V17.5591H52.323V18.4592H53.8341L53.8286 18.5574C53.8068 19.392 53.1522 19.9593 52.203 19.9593C51.0738 19.9593 50.3647 19.1029 50.3647 17.7009C50.3647 16.3208 51.0411 15.508 52.1758 15.508C52.9449 15.508 53.5231 15.9171 53.7413 16.6099H54.936C54.7287 15.3498 53.6322 14.4988 52.1703 14.4988C50.3156 14.4988 49.1591 15.7153 49.1591 17.7118C49.1591 19.7356 50.3156 20.963 52.1921 20.963C53.9486 20.963 54.9905 19.9429 54.9905 18.2464ZM60.1892 19.8557H57.2216V18.1591H60.031V17.2209H57.2216V15.6116H60.1892V14.6079H56.0379V20.8594H60.1892V19.8557ZM64.0677 20.8594V15.6116H65.9933V14.6079H60.9638V15.6116H62.8894V20.8594H64.0677ZM70.6519 20.8594V18.3446H73.3139V17.3845H70.6519V15.6116H73.5649V14.6079H69.4682V20.8594H70.6519ZM77.3507 14.4988C75.4741 14.4988 74.3068 15.7426 74.3068 17.7337C74.3068 19.7247 75.4741 20.963 77.3507 20.963C79.2163 20.963 80.3891 19.7247 80.3891 17.7337C80.3891 15.7426 79.2163 14.4988 77.3507 14.4988ZM77.3507 15.5189C78.4689 15.5189 79.1781 16.3754 79.1781 17.7337C79.1781 19.0919 78.4689 19.9484 77.3507 19.9484C76.2215 19.9484 75.5123 19.0919 75.5123 17.7337C75.5123 16.3754 76.2269 15.5189 77.3507 15.5189ZM82.5984 15.5626H83.8639C84.5731 15.5626 85.015 15.9662 85.015 16.599C85.015 17.2536 84.6004 17.6355 83.8858 17.6355H82.5984V15.5626ZM82.5984 18.5355H83.8258L85.064 20.8594H86.4169L85.0313 18.3501C85.7896 18.0773 86.226 17.39 86.226 16.5717C86.226 15.3607 85.3968 14.6079 83.9949 14.6079H81.4146V20.8594H82.5984V18.5355Z" fill="white"/>
</svg>
