<svg width="20" height="20" viewBox="0 0 20 20" fill="none" xmlns="http://www.w3.org/2000/svg">
<path fill-rule="evenodd" clip-rule="evenodd" d="M19.975 19.275L14.675 13.975C17.575 10.675 17.475 5.575 14.375 2.475C11.075 -0.825 5.775 -0.825 2.475 2.475C-0.825 5.775 -0.825 11.075 2.475 14.375C5.675 17.575 10.675 17.675 13.975 14.675L19.275 19.975L19.975 19.275ZM3.175 13.575C0.275 10.675 0.275 5.975 3.175 3.075C6.075 0.175 10.775 0.175 13.675 3.075C16.575 5.975 16.575 10.675 13.675 13.575C10.775 16.475 6.075 16.475 3.175 13.575Z" fill="#90A4AE"/>
</svg>
